<mxfile host="app.diagrams.net" modified="2022-12-21T09:57:30.309Z" agent="5.0 (Macintosh; Intel Mac OS X 10_15_3) AppleWebKit/537.36 (KHTML, like Gecko) Chrome/108.0.0.0 Safari/537.36" etag="h_bO_F0tXwBP7fvQs_HJ" version="20.6.2" type="github">
  <diagram id="kgpKYQtTHZ0yAKxKKP6v" name="Page-1">
    <mxGraphModel dx="775" dy="491" grid="1" gridSize="10" guides="1" tooltips="1" connect="1" arrows="1" fold="1" page="1" pageScale="1" pageWidth="850" pageHeight="1100" math="0" shadow="0">
      <root>
        <mxCell id="0" />
        <mxCell id="1" parent="0" />
        <mxCell id="kpBE8-PLEMtdglSSqbAy-16" value="" style="rounded=1;whiteSpace=wrap;html=1;absoluteArcSize=1;arcSize=14;strokeWidth=1;dashed=1;" vertex="1" parent="1">
          <mxGeometry x="560" y="370" width="160" height="420" as="geometry" />
        </mxCell>
        <mxCell id="kpBE8-PLEMtdglSSqbAy-15" value="" style="rounded=1;whiteSpace=wrap;html=1;absoluteArcSize=1;arcSize=14;strokeWidth=1;dashed=1;" vertex="1" parent="1">
          <mxGeometry x="400" y="370" width="160" height="420" as="geometry" />
        </mxCell>
        <mxCell id="kpBE8-PLEMtdglSSqbAy-14" value="" style="rounded=1;whiteSpace=wrap;html=1;absoluteArcSize=1;arcSize=14;strokeWidth=1;dashed=1;" vertex="1" parent="1">
          <mxGeometry x="240" y="370" width="160" height="420" as="geometry" />
        </mxCell>
        <mxCell id="0oZg8qkL9w9ilyilMxtD-24" value="应用层&lt;br&gt;&lt;br&gt;&lt;br&gt;&lt;br&gt;&lt;br&gt;" style="rounded=0;whiteSpace=wrap;html=1;dashed=1;" parent="1" vertex="1">
          <mxGeometry x="190" y="20" width="430" height="80" as="geometry" />
        </mxCell>
        <mxCell id="0oZg8qkL9w9ilyilMxtD-13" value="通用排版服务&lt;br&gt;&lt;br&gt;&lt;br&gt;&lt;br&gt;&lt;br&gt;&lt;br&gt;&lt;br&gt;&lt;br&gt;&lt;br&gt;&lt;br&gt;&lt;br&gt;&lt;br&gt;&lt;br&gt;" style="rounded=0;whiteSpace=wrap;html=1;dashed=1;" parent="1" vertex="1">
          <mxGeometry x="190" y="150" width="430" height="200" as="geometry" />
        </mxCell>
        <mxCell id="0oZg8qkL9w9ilyilMxtD-4" value="文档数据生成服务&lt;br&gt;&lt;br&gt;&lt;br&gt;&lt;br&gt;&lt;br&gt;&lt;br&gt;&lt;br&gt;" style="rounded=0;whiteSpace=wrap;html=1;" parent="1" vertex="1">
          <mxGeometry x="200" y="180" width="200" height="120" as="geometry" />
        </mxCell>
        <mxCell id="0oZg8qkL9w9ilyilMxtD-5" value="文档渲染引擎&lt;br&gt;&lt;br&gt;&lt;br&gt;&lt;br&gt;&lt;br&gt;&lt;br&gt;&lt;br&gt;" style="rounded=0;whiteSpace=wrap;html=1;" parent="1" vertex="1">
          <mxGeometry x="410" y="180" width="200" height="120" as="geometry" />
        </mxCell>
        <mxCell id="0oZg8qkL9w9ilyilMxtD-6" value="网页" style="rounded=0;whiteSpace=wrap;html=1;" parent="1" vertex="1">
          <mxGeometry x="420" y="250" width="70" height="40" as="geometry" />
        </mxCell>
        <mxCell id="0oZg8qkL9w9ilyilMxtD-7" value="word" style="rounded=0;whiteSpace=wrap;html=1;" parent="1" vertex="1">
          <mxGeometry x="530" y="250" width="70" height="40" as="geometry" />
        </mxCell>
        <mxCell id="0oZg8qkL9w9ilyilMxtD-9" value="题目组件" style="rounded=0;whiteSpace=wrap;html=1;" parent="1" vertex="1">
          <mxGeometry x="200" y="50" width="70" height="40" as="geometry" />
        </mxCell>
        <mxCell id="0oZg8qkL9w9ilyilMxtD-10" value="答题卡" style="rounded=0;whiteSpace=wrap;html=1;" parent="1" vertex="1">
          <mxGeometry x="320" y="50" width="70" height="40" as="geometry" />
        </mxCell>
        <mxCell id="0oZg8qkL9w9ilyilMxtD-11" value="下载试卷" style="rounded=0;whiteSpace=wrap;html=1;" parent="1" vertex="1">
          <mxGeometry x="420" y="50" width="70" height="40" as="geometry" />
        </mxCell>
        <mxCell id="0oZg8qkL9w9ilyilMxtD-12" value="APP错题打印" style="rounded=0;whiteSpace=wrap;html=1;" parent="1" vertex="1">
          <mxGeometry x="520" y="50" width="90" height="40" as="geometry" />
        </mxCell>
        <mxCell id="0oZg8qkL9w9ilyilMxtD-16" style="edgeStyle=orthogonalEdgeStyle;rounded=0;orthogonalLoop=1;jettySize=auto;html=1;exitX=0.5;exitY=0;exitDx=0;exitDy=0;entryX=0.5;entryY=0;entryDx=0;entryDy=0;dashed=1;" parent="1" source="0oZg8qkL9w9ilyilMxtD-14" target="0oZg8qkL9w9ilyilMxtD-15" edge="1">
          <mxGeometry relative="1" as="geometry">
            <Array as="points">
              <mxPoint x="245" y="240" />
              <mxPoint x="355" y="240" />
            </Array>
          </mxGeometry>
        </mxCell>
        <mxCell id="0oZg8qkL9w9ilyilMxtD-31" value="数据转换" style="edgeLabel;html=1;align=center;verticalAlign=middle;resizable=0;points=[];" parent="0oZg8qkL9w9ilyilMxtD-16" vertex="1" connectable="0">
          <mxGeometry x="0.3596" y="1" relative="1" as="geometry">
            <mxPoint x="-22" y="1" as="offset" />
          </mxGeometry>
        </mxCell>
        <mxCell id="0oZg8qkL9w9ilyilMxtD-17" style="edgeStyle=orthogonalEdgeStyle;rounded=0;orthogonalLoop=1;jettySize=auto;html=1;exitX=0.5;exitY=1;exitDx=0;exitDy=0;" parent="1" source="0oZg8qkL9w9ilyilMxtD-14" edge="1">
          <mxGeometry relative="1" as="geometry">
            <mxPoint x="455" y="100" as="targetPoint" />
            <Array as="points">
              <mxPoint x="245" y="340" />
              <mxPoint x="455" y="340" />
            </Array>
          </mxGeometry>
        </mxCell>
        <mxCell id="0oZg8qkL9w9ilyilMxtD-21" value="3.渲染" style="edgeLabel;html=1;align=center;verticalAlign=middle;resizable=0;points=[];" parent="0oZg8qkL9w9ilyilMxtD-17" vertex="1" connectable="0">
          <mxGeometry x="0.6179" y="1" relative="1" as="geometry">
            <mxPoint x="-4" y="29" as="offset" />
          </mxGeometry>
        </mxCell>
        <mxCell id="0oZg8qkL9w9ilyilMxtD-14" value="网页&lt;br&gt;数据" style="rounded=0;whiteSpace=wrap;html=1;" parent="1" vertex="1">
          <mxGeometry x="210" y="274" width="70" height="40" as="geometry" />
        </mxCell>
        <mxCell id="0oZg8qkL9w9ilyilMxtD-22" style="edgeStyle=orthogonalEdgeStyle;rounded=0;orthogonalLoop=1;jettySize=auto;html=1;exitX=0.5;exitY=1;exitDx=0;exitDy=0;" parent="1" source="0oZg8qkL9w9ilyilMxtD-15" edge="1">
          <mxGeometry relative="1" as="geometry">
            <mxPoint x="473" y="100" as="targetPoint" />
            <Array as="points">
              <mxPoint x="355" y="334" />
              <mxPoint x="570" y="334" />
              <mxPoint x="570" y="170" />
              <mxPoint x="473" y="170" />
            </Array>
          </mxGeometry>
        </mxCell>
        <mxCell id="0oZg8qkL9w9ilyilMxtD-15" value="word&lt;br&gt;数据" style="rounded=0;whiteSpace=wrap;html=1;" parent="1" vertex="1">
          <mxGeometry x="320" y="274" width="70" height="40" as="geometry" />
        </mxCell>
        <mxCell id="0oZg8qkL9w9ilyilMxtD-25" style="edgeStyle=orthogonalEdgeStyle;rounded=0;orthogonalLoop=1;jettySize=auto;html=1;exitX=0.25;exitY=1;exitDx=0;exitDy=0;entryX=0.25;entryY=0;entryDx=0;entryDy=0;" parent="1" source="0oZg8qkL9w9ilyilMxtD-24" target="0oZg8qkL9w9ilyilMxtD-4" edge="1">
          <mxGeometry relative="1" as="geometry" />
        </mxCell>
        <mxCell id="0oZg8qkL9w9ilyilMxtD-26" value="1.输入题目数据" style="edgeLabel;html=1;align=center;verticalAlign=middle;resizable=0;points=[];" parent="0oZg8qkL9w9ilyilMxtD-25" vertex="1" connectable="0">
          <mxGeometry x="-0.2392" y="1" relative="1" as="geometry">
            <mxPoint x="1" y="-21" as="offset" />
          </mxGeometry>
        </mxCell>
        <mxCell id="0oZg8qkL9w9ilyilMxtD-27" style="edgeStyle=orthogonalEdgeStyle;rounded=0;orthogonalLoop=1;jettySize=auto;html=1;exitX=0.25;exitY=0;exitDx=0;exitDy=0;entryX=0.25;entryY=0;entryDx=0;entryDy=0;" parent="1" source="0oZg8qkL9w9ilyilMxtD-4" target="0oZg8qkL9w9ilyilMxtD-14" edge="1">
          <mxGeometry relative="1" as="geometry">
            <Array as="points">
              <mxPoint x="250" y="200" />
              <mxPoint x="228" y="200" />
              <mxPoint x="228" y="250" />
            </Array>
          </mxGeometry>
        </mxCell>
        <mxCell id="0oZg8qkL9w9ilyilMxtD-28" value="2.数据转换" style="edgeLabel;html=1;align=center;verticalAlign=middle;resizable=0;points=[];" parent="0oZg8qkL9w9ilyilMxtD-27" vertex="1" connectable="0">
          <mxGeometry x="0.2155" relative="1" as="geometry">
            <mxPoint x="3" y="-9" as="offset" />
          </mxGeometry>
        </mxCell>
        <mxCell id="dXwlCPIfKvS-1EIEdDII-10" style="edgeStyle=orthogonalEdgeStyle;rounded=0;orthogonalLoop=1;jettySize=auto;html=1;exitX=0.5;exitY=1;exitDx=0;exitDy=0;exitPerimeter=0;entryX=0.5;entryY=0;entryDx=0;entryDy=0;" parent="1" source="dXwlCPIfKvS-1EIEdDII-1" target="dXwlCPIfKvS-1EIEdDII-2" edge="1">
          <mxGeometry relative="1" as="geometry" />
        </mxCell>
        <mxCell id="dXwlCPIfKvS-1EIEdDII-1" value="开始" style="strokeWidth=2;html=1;shape=mxgraph.flowchart.terminator;whiteSpace=wrap;" parent="1" vertex="1">
          <mxGeometry x="280" y="400" width="80" height="30" as="geometry" />
        </mxCell>
        <mxCell id="dXwlCPIfKvS-1EIEdDII-11" style="edgeStyle=orthogonalEdgeStyle;rounded=0;orthogonalLoop=1;jettySize=auto;html=1;exitX=1;exitY=0.5;exitDx=0;exitDy=0;entryX=0;entryY=0.5;entryDx=0;entryDy=0;" parent="1" source="dXwlCPIfKvS-1EIEdDII-2" target="dXwlCPIfKvS-1EIEdDII-3" edge="1">
          <mxGeometry relative="1" as="geometry" />
        </mxCell>
        <mxCell id="dXwlCPIfKvS-1EIEdDII-2" value="点击下载试卷" style="rounded=1;whiteSpace=wrap;html=1;absoluteArcSize=1;arcSize=14;strokeWidth=2;" parent="1" vertex="1">
          <mxGeometry x="280" y="460" width="80" height="30" as="geometry" />
        </mxCell>
        <mxCell id="dXwlCPIfKvS-1EIEdDII-12" style="edgeStyle=orthogonalEdgeStyle;rounded=0;orthogonalLoop=1;jettySize=auto;html=1;exitX=1;exitY=0.5;exitDx=0;exitDy=0;entryX=0;entryY=0.25;entryDx=0;entryDy=0;" parent="1" source="dXwlCPIfKvS-1EIEdDII-3" target="dXwlCPIfKvS-1EIEdDII-4" edge="1">
          <mxGeometry relative="1" as="geometry" />
        </mxCell>
        <mxCell id="dXwlCPIfKvS-1EIEdDII-3" value="生成下载任务" style="rounded=1;whiteSpace=wrap;html=1;absoluteArcSize=1;arcSize=14;strokeWidth=2;" parent="1" vertex="1">
          <mxGeometry x="440" y="460" width="80" height="30" as="geometry" />
        </mxCell>
        <mxCell id="dXwlCPIfKvS-1EIEdDII-13" style="edgeStyle=orthogonalEdgeStyle;rounded=0;orthogonalLoop=1;jettySize=auto;html=1;exitX=0.5;exitY=1;exitDx=0;exitDy=0;entryX=0.5;entryY=0;entryDx=0;entryDy=0;" parent="1" source="dXwlCPIfKvS-1EIEdDII-4" target="dXwlCPIfKvS-1EIEdDII-8" edge="1">
          <mxGeometry relative="1" as="geometry" />
        </mxCell>
        <mxCell id="dXwlCPIfKvS-1EIEdDII-4" value="打开前端&lt;br&gt;渲染页面&lt;br&gt;PageUrl" style="rounded=1;whiteSpace=wrap;html=1;absoluteArcSize=1;arcSize=14;strokeWidth=2;" parent="1" vertex="1">
          <mxGeometry x="600" y="460" width="80" height="60" as="geometry" />
        </mxCell>
        <mxCell id="dXwlCPIfKvS-1EIEdDII-9" style="edgeStyle=orthogonalEdgeStyle;rounded=0;orthogonalLoop=1;jettySize=auto;html=1;exitX=0.5;exitY=1;exitDx=0;exitDy=0;exitPerimeter=0;entryX=0.5;entryY=0;entryDx=0;entryDy=0;" parent="1" target="dXwlCPIfKvS-1EIEdDII-7" edge="1">
          <mxGeometry relative="1" as="geometry">
            <mxPoint x="640" y="640" as="sourcePoint" />
          </mxGeometry>
        </mxCell>
        <mxCell id="dXwlCPIfKvS-1EIEdDII-14" value="是" style="edgeLabel;html=1;align=center;verticalAlign=middle;resizable=0;points=[];" parent="dXwlCPIfKvS-1EIEdDII-9" vertex="1" connectable="0">
          <mxGeometry x="0.075" y="4" relative="1" as="geometry">
            <mxPoint x="6" y="-12" as="offset" />
          </mxGeometry>
        </mxCell>
        <mxCell id="kpBE8-PLEMtdglSSqbAy-4" value="否" style="edgeStyle=orthogonalEdgeStyle;rounded=0;orthogonalLoop=1;jettySize=auto;html=1;exitX=0;exitY=0.5;exitDx=0;exitDy=0;exitPerimeter=0;entryX=1;entryY=0.5;entryDx=0;entryDy=0;" edge="1" parent="1">
          <mxGeometry relative="1" as="geometry">
            <mxPoint x="590" y="615" as="sourcePoint" />
            <mxPoint x="520" y="615" as="targetPoint" />
          </mxGeometry>
        </mxCell>
        <mxCell id="dXwlCPIfKvS-1EIEdDII-6" value="是否为word" style="strokeWidth=2;html=1;shape=mxgraph.flowchart.decision;whiteSpace=wrap;" parent="1" vertex="1">
          <mxGeometry x="590" y="590" width="100" height="50" as="geometry" />
        </mxCell>
        <mxCell id="kpBE8-PLEMtdglSSqbAy-5" style="edgeStyle=orthogonalEdgeStyle;rounded=0;orthogonalLoop=1;jettySize=auto;html=1;exitX=0;exitY=0.5;exitDx=0;exitDy=0;entryX=1;entryY=0.5;entryDx=0;entryDy=0;" edge="1" parent="1" source="dXwlCPIfKvS-1EIEdDII-7" target="kpBE8-PLEMtdglSSqbAy-3">
          <mxGeometry relative="1" as="geometry" />
        </mxCell>
        <mxCell id="dXwlCPIfKvS-1EIEdDII-7" value="输出word中的题目数据&lt;br&gt;给制卡服务" style="rounded=1;whiteSpace=wrap;html=1;absoluteArcSize=1;arcSize=14;strokeWidth=2;" parent="1" vertex="1">
          <mxGeometry x="600" y="680" width="80" height="50" as="geometry" />
        </mxCell>
        <mxCell id="kpBE8-PLEMtdglSSqbAy-1" style="edgeStyle=orthogonalEdgeStyle;rounded=0;orthogonalLoop=1;jettySize=auto;html=1;exitX=0.5;exitY=1;exitDx=0;exitDy=0;" edge="1" parent="1" source="dXwlCPIfKvS-1EIEdDII-8">
          <mxGeometry relative="1" as="geometry">
            <mxPoint x="640" y="590" as="targetPoint" />
          </mxGeometry>
        </mxCell>
        <mxCell id="dXwlCPIfKvS-1EIEdDII-8" value="页面加载完成" style="rounded=1;whiteSpace=wrap;html=1;absoluteArcSize=1;arcSize=14;strokeWidth=2;" parent="1" vertex="1">
          <mxGeometry x="600" y="540" width="80" height="30" as="geometry" />
        </mxCell>
        <mxCell id="kpBE8-PLEMtdglSSqbAy-12" style="edgeStyle=orthogonalEdgeStyle;rounded=0;orthogonalLoop=1;jettySize=auto;html=1;exitX=0;exitY=0.5;exitDx=0;exitDy=0;entryX=1;entryY=0.5;entryDx=0;entryDy=0;" edge="1" parent="1" source="kpBE8-PLEMtdglSSqbAy-3" target="kpBE8-PLEMtdglSSqbAy-6">
          <mxGeometry relative="1" as="geometry" />
        </mxCell>
        <mxCell id="kpBE8-PLEMtdglSSqbAy-3" value="根据前端数据+页面数据&lt;br&gt;生成word" style="rounded=1;whiteSpace=wrap;html=1;absoluteArcSize=1;arcSize=14;strokeWidth=2;" vertex="1" parent="1">
          <mxGeometry x="440" y="680" width="80" height="50" as="geometry" />
        </mxCell>
        <mxCell id="kpBE8-PLEMtdglSSqbAy-13" style="edgeStyle=orthogonalEdgeStyle;rounded=0;orthogonalLoop=1;jettySize=auto;html=1;exitX=0.5;exitY=1;exitDx=0;exitDy=0;" edge="1" parent="1" source="kpBE8-PLEMtdglSSqbAy-6" target="kpBE8-PLEMtdglSSqbAy-10">
          <mxGeometry relative="1" as="geometry" />
        </mxCell>
        <mxCell id="kpBE8-PLEMtdglSSqbAy-6" value="导出成功" style="rounded=1;whiteSpace=wrap;html=1;absoluteArcSize=1;arcSize=14;strokeWidth=2;" vertex="1" parent="1">
          <mxGeometry x="280" y="690" width="80" height="30" as="geometry" />
        </mxCell>
        <mxCell id="kpBE8-PLEMtdglSSqbAy-9" value="" style="edgeStyle=orthogonalEdgeStyle;rounded=0;orthogonalLoop=1;jettySize=auto;html=1;exitX=1;exitY=0.5;exitDx=0;exitDy=0;" edge="1" parent="1" source="kpBE8-PLEMtdglSSqbAy-8">
          <mxGeometry relative="1" as="geometry">
            <mxPoint x="590" y="615" as="targetPoint" />
          </mxGeometry>
        </mxCell>
        <mxCell id="kpBE8-PLEMtdglSSqbAy-11" style="edgeStyle=orthogonalEdgeStyle;rounded=0;orthogonalLoop=1;jettySize=auto;html=1;exitX=0;exitY=0.5;exitDx=0;exitDy=0;entryX=0.5;entryY=0;entryDx=0;entryDy=0;" edge="1" parent="1" source="kpBE8-PLEMtdglSSqbAy-8" target="kpBE8-PLEMtdglSSqbAy-6">
          <mxGeometry relative="1" as="geometry" />
        </mxCell>
        <mxCell id="kpBE8-PLEMtdglSSqbAy-8" value="将页面转换&lt;br&gt;为pdf" style="rounded=1;whiteSpace=wrap;html=1;absoluteArcSize=1;arcSize=14;strokeWidth=2;" vertex="1" parent="1">
          <mxGeometry x="440" y="590" width="80" height="50" as="geometry" />
        </mxCell>
        <mxCell id="kpBE8-PLEMtdglSSqbAy-10" value="结束" style="rounded=1;whiteSpace=wrap;html=1;absoluteArcSize=1;arcSize=14;strokeWidth=2;" vertex="1" parent="1">
          <mxGeometry x="280" y="750" width="80" height="30" as="geometry" />
        </mxCell>
        <mxCell id="kpBE8-PLEMtdglSSqbAy-19" value="用户" style="rounded=1;whiteSpace=wrap;html=1;absoluteArcSize=1;arcSize=14;strokeWidth=1;dashed=1;" vertex="1" parent="1">
          <mxGeometry x="240" y="370" width="160" height="20" as="geometry" />
        </mxCell>
        <mxCell id="kpBE8-PLEMtdglSSqbAy-20" value="制卡服务GO" style="rounded=1;whiteSpace=wrap;html=1;absoluteArcSize=1;arcSize=14;strokeWidth=1;dashed=1;" vertex="1" parent="1">
          <mxGeometry x="400" y="370" width="160" height="20" as="geometry" />
        </mxCell>
        <mxCell id="kpBE8-PLEMtdglSSqbAy-21" value="前端页面" style="rounded=1;whiteSpace=wrap;html=1;absoluteArcSize=1;arcSize=14;strokeWidth=1;dashed=1;" vertex="1" parent="1">
          <mxGeometry x="560" y="370" width="160" height="20" as="geometry" />
        </mxCell>
      </root>
    </mxGraphModel>
  </diagram>
</mxfile>
